HIERARCHY
ROOT Hips
{
	OFFSET 0.00000 0.00000 0.00000
	CHANNELS 6 Xposition Yposition Zposition Zrotation Yrotation Xrotation 
	JOINT LHipJoint
	{
		OFFSET 0 0 0
		CHANNELS 3 Zrotation Yrotation Xrotation
		JOINT LeftUpLeg
		{
			OFFSET 1.80322 -1.53100 0.99595
			CHANNELS 3 Zrotation Yrotation Xrotation
			JOINT LeftLeg
			{
				OFFSET 2.25177 -6.18669 0.00000
				CHANNELS 3 Zrotation Yrotation Xrotation
				JOINT LeftFoot
				{
					OFFSET 2.26601 -6.22582 0.00000
					CHANNELS 3 Zrotation Yrotation Xrotation
					JOINT LeftToeBase
					{
						OFFSET 0.23701 -0.65119 2.15848
						CHANNELS 3 Zrotation Yrotation Xrotation
						End Site
						{
							OFFSET 0.00000 -0.00000 1.12949
						}
					}
				}
			}
		}
	}
	JOINT RHipJoint
	{
		OFFSET 0 0 0
		CHANNELS 3 Zrotation Yrotation Xrotation
		JOINT RightUpLeg
		{
			OFFSET -1.93977 -1.53100 0.99595
			CHANNELS 3 Zrotation Yrotation Xrotation
			JOINT RightLeg
			{
				OFFSET -2.28036 -6.26523 0.00000
				CHANNELS 3 Zrotation Yrotation Xrotation
				JOINT RightFoot
				{
					OFFSET -2.25490 -6.19528 0.00000
					CHANNELS 3 Zrotation Yrotation Xrotation
					JOINT RightToeBase
					{
						OFFSET -0.28375 -0.77960 2.23137
						CHANNELS 3 Zrotation Yrotation Xrotation
						End Site
						{
							OFFSET -0.00000 -0.00000 1.17899
						}
					}
				}
			}
		}
	}
	JOINT LowerBack
	{
		OFFSET 0 0 0
		CHANNELS 3 Zrotation Yrotation Xrotation
		JOINT Spine
		{
			OFFSET -0.00088 2.12090 -0.02806
			CHANNELS 3 Zrotation Yrotation Xrotation
			JOINT Spine1
			{
				OFFSET -0.00286 2.09666 0.12974
				CHANNELS 3 Zrotation Yrotation Xrotation
				JOINT Neck
				{
					OFFSET 0 0 0
					CHANNELS 3 Zrotation Yrotation Xrotation
					JOINT Neck1
					{
						OFFSET 0.07328 1.83526 0.07290
						CHANNELS 3 Zrotation Yrotation Xrotation
						JOINT Head
						{
							OFFSET -0.06683 1.74974 -0.49542
							CHANNELS 3 Zrotation Yrotation Xrotation
							End Site
							{
								OFFSET -0.03398 1.85163 -0.17573
							}
						}
					}
				}
				JOINT LeftShoulder
				{
					OFFSET 0 0 0
					CHANNELS 3 Zrotation Yrotation Xrotation
					JOINT LeftArm
					{
						OFFSET 3.02113 1.18018 0.40602
						CHANNELS 3 Zrotation Yrotation Xrotation
						JOINT LeftForeArm
						{
							OFFSET 4.58538 -0.00000 -0.00000
							CHANNELS 3 Zrotation Yrotation Xrotation
							JOINT LeftHand
							{
								OFFSET 2.68935 -0.00000 -0.00000
								CHANNELS 3 Zrotation Yrotation Xrotation
								JOINT LeftFingerBase
								{
									OFFSET 0 0 0
									CHANNELS 3 Zrotation Yrotation Xrotation
									JOINT LeftHandIndex1
									{
										OFFSET 0.58506 -0.00000 -0.00000
										CHANNELS 3 Zrotation Yrotation Xrotation
										End Site
										{
											OFFSET 0.47169 -0.00000 -0.00000
										}
									}
								}
								JOINT LThumb
								{
									OFFSET 0 0 0
									CHANNELS 3 Zrotation Yrotation Xrotation
									End Site
									{
										OFFSET 0.47889 -0.00000 0.47889
									}
								}
							}
						}
					}
				}
				JOINT RightShoulder
				{
					OFFSET 0 0 0
					CHANNELS 3 Zrotation Yrotation Xrotation
					JOINT RightArm
					{
						OFFSET -2.95074 1.18843 0.31430
						CHANNELS 3 Zrotation Yrotation Xrotation
						JOINT RightForeArm
						{
							OFFSET -4.47450 -0.00000 -0.00000
							CHANNELS 3 Zrotation Yrotation Xrotation
							JOINT RightHand
							{
								OFFSET -2.93896 -0.00000 -0.00000
								CHANNELS 3 Zrotation Yrotation Xrotation
								JOINT RightFingerBase
								{
									OFFSET 0 0 0
									CHANNELS 3 Zrotation Yrotation Xrotation
									JOINT RightHandIndex1
									{
										OFFSET -0.40509 -0.00000 -0.00000
										CHANNELS 3 Zrotation Yrotation Xrotation
										End Site
										{
											OFFSET -0.32660 -0.00000 -0.00000
										}
									}
								}
								JOINT RThumb
								{
									OFFSET 0 0 0
									CHANNELS 3 Zrotation Yrotation Xrotation
									End Site
									{
										OFFSET -0.33158 -0.00000 0.33158
									}
								}
							}
						}
					}
				}
			}
		}
	}
}
MOTION
Frames: 12
Frame Time: .0083333
0.6304 15.2705 6.7546 0.8927 -4.4447 67.4301 0.0000 0.0000 0.0000 11.9915 -23.6660 -92.6794 2.3578 9.5746 27.6099 -0.3839 11.2008 -6.8717 0.1484 2.4829 6.8421 0.0000 0.0000 0.0000 -18.9243 21.7251 -95.4383 -2.6635 -10.1293 29.3964 0.4105 -11.2962 -4.9983 -0.0049 -0.4526 1.2436 -0.7548 2.5319 36.2093 -0.2699 2.7619 3.4563 -1.0872 1.1985 -14.4570 17.5683 3.2024 -11.0561 -15.1142 3.2926 9.5437 -7.5150 1.3176 5.2230 -0.0000 -0.0000 0.0000 -81.8151 -63.5798 36.2049 12.9323 -21.1880 -2.4288 -0.0000 -0.0000 0.1477 10.4116 17.4173 3.1481 -7.1250 0.0000 -0.0000 -16.6478 46.9632 -0.8288 -0.0000 -0.0000 0.0000 59.7719 61.5922 2.5654 -12.5563 20.6336 -2.2945 0.0000 -0.0000 -3.5938 -10.8309 -9.6282 1.8328 7.1250 -0.0000 -0.0000 14.0019 -39.3991 1.9778
0.6282 15.2725 6.7468 0.9916 -4.4790 66.6847 0.0000 0.0000 0.0000 11.0385 -23.7536 -92.0491 2.4166 9.6847 27.9617 -0.3370 10.5747 -6.7698 0.1393 2.4053 6.6272 0.0000 0.0000 0.0000 -18.4491 21.8255 -94.9338 -2.7584 -10.2933 29.9318 0.3810 -10.9166 -5.1728 -0.0045 -0.4338 1.1920 -0.7071 2.4239 35.8461 -0.3819 2.6379 3.4121 -1.1721 1.1442 -14.3619 17.4871 3.2567 -11.1071 -14.9922 3.3572 9.5470 -7.4534 1.3515 5.2404 -0.0000 -0.0000 0.0000 -81.8243 -61.3858 35.4886 12.7335 -20.8956 -2.3574 -0.0000 -0.0000 1.0653 9.6928 17.2946 2.9068 -7.1250 0.0000 -0.0000 -17.2565 46.7512 -0.7680 -0.0000 -0.0000 0.0000 62.4702 59.9485 3.5644 -12.3052 20.2608 -2.2069 0.0000 -0.0000 -2.1778 -10.0528 -9.3578 1.6511 7.1250 -0.0000 -0.0000 14.5969 -39.0730 2.1863
0.6257 15.2750 6.7399 1.0896 -4.5041 65.9423 0.0000 0.0000 0.0000 10.1369 -23.8344 -91.4036 2.4746 9.7915 28.3042 -0.2950 9.9881 -6.7050 0.1319 2.3407 6.4483 0.0000 0.0000 0.0000 -17.9878 21.9251 -94.4107 -2.8503 -10.4487 30.4425 0.3545 -10.5731 -5.3482 -0.0039 -0.4033 1.1080 -0.6611 2.3211 35.4618 -0.4882 2.5205 3.3723 -1.2526 1.0928 -14.2529 17.3299 3.3137 -11.2176 -14.7492 3.4196 9.6311 -7.3387 1.3875 5.2886 0.0000 -0.0000 0.0000 -81.7318 -59.1330 34.8059 12.5796 -20.6682 -2.3028 -0.0000 -0.0000 2.2009 8.9393 17.0600 2.6422 -7.1250 0.0000 -0.0000 -17.8518 46.4295 -0.6502 0.0000 -0.0000 0.0000 64.8825 58.2268 4.3009 -12.1173 19.9803 -2.1422 0.0000 -0.0000 -1.2054 -9.1759 -9.3222 1.4989 7.1250 -0.0000 -0.0000 15.3263 -38.9714 2.3412
0.6230 15.2781 6.7342 1.1869 -4.5262 65.1982 0.0000 0.0000 0.0000 9.2741 -23.9109 -90.7279 2.5307 9.8935 28.6325 -0.2571 9.4408 -6.6799 0.1260 2.2885 6.3038 0.0000 0.0000 0.0000 -17.5397 22.0268 -93.8642 -2.9392 -10.5960 30.9290 0.3305 -10.2596 -5.5239 -0.0032 -0.3674 1.0095 -0.6149 2.2198 35.0674 -0.5967 2.4042 3.3389 -1.3362 1.0417 -14.1315 17.1481 3.3727 -11.3581 -14.4548 3.4790 9.7372 -7.2030 1.4235 5.3465 -0.0000 0.0000 0.0000 -81.5598 -56.8444 34.1500 12.4717 -20.5083 -2.2648 -0.0000 -0.0000 3.3963 8.1785 16.7521 2.3721 -7.1250 0.0000 -0.0000 -18.4223 46.0397 -0.4892 -0.0000 0.0000 0.0000 67.0648 56.4503 4.8456 -11.9881 19.7869 -2.0983 0.0000 -0.0000 -0.7524 -8.3487 -9.4570 1.3813 7.1250 -0.0000 -0.0000 16.0534 -39.0392 2.4314
0.6199 15.2817 6.7291 1.2780 -4.5357 64.4649 0.0000 0.0000 0.0000 8.4632 -23.9762 -90.0436 2.5831 9.9875 28.9363 -0.2235 8.9330 -6.6693 0.1204 2.2370 6.1612 0.0000 0.0000 0.0000 -17.0720 22.1218 -93.3049 -3.0242 -10.7341 31.3884 0.3068 -9.9482 -5.6935 -0.0026 -0.3310 0.9094 -0.5535 2.1115 34.6512 -0.7097 2.2838 3.3127 -1.4307 0.9879 -13.9915 16.9326 3.4334 -11.5332 -14.1060 3.5351 9.8582 -7.0436 1.4592 5.4124 -0.0000 0.0000 0.0000 -81.3033 -54.5499 33.5007 12.4041 -20.4079 -2.2412 -0.0000 -0.0000 4.4821 7.4309 16.4055 2.1096 -7.1250 0.0000 -0.0000 -18.9623 45.6182 -0.3002 -0.0000 0.0000 0.0000 69.0707 54.6322 5.2986 -11.9046 19.6615 -2.0701 0.0000 -0.0000 -0.7445 -7.7882 -9.7082 1.3212 7.1250 -0.0000 -0.0000 16.5865 -39.2388 2.4332
0.6166 15.2860 6.7252 1.3632 -4.5391 63.7289 0.0000 0.0000 0.0000 7.7391 -24.0469 -89.3313 2.6315 10.0732 29.2140 -0.1957 8.5064 -6.6974 0.1165 2.2003 6.0596 0.0000 0.0000 0.0000 -16.6192 22.2240 -92.7138 -3.1046 -10.8625 31.8175 0.2855 -9.6694 -5.8706 -0.0022 -0.3004 0.8255 -0.4775 1.9915 34.2359 -0.8341 2.1518 3.2942 -1.5412 0.9279 -13.8415 16.8148 3.5002 -11.6859 -13.8715 3.5963 9.9173 -6.9385 1.4946 5.4602 -0.0000 0.0000 0.0000 -80.9881 -52.2548 32.8630 12.3742 -20.3634 -2.2308 -0.0000 -0.0000 5.3300 6.7740 16.0920 1.8857 -7.1250 0.0000 -0.0000 -19.4302 45.2424 -0.1209 -0.0000 0.0000 0.0000 70.9596 52.7868 5.6849 -11.8492 19.5781 -2.0515 0.0000 -0.0000 -1.1292 -7.5024 -10.0283 1.3137 7.1250 -0.0000 -0.0000 16.9090 -39.5247 2.3604
0.6133 15.2910 6.7224 1.4462 -4.5470 62.9887 0.0000 0.0000 0.0000 7.0572 -24.1178 -88.5911 2.6748 10.1490 29.4605 -0.1722 8.1381 -6.7374 0.1125 2.1626 5.9552 0.0000 0.0000 0.0000 -16.1810 22.3296 -92.0890 -3.1788 -10.9790 32.2091 0.2657 -9.4117 -6.0452 -0.0018 -0.2758 0.7577 -0.3960 1.8602 33.8272 -0.9732 2.0045 3.2840 -1.6649 0.8604 -13.6836 16.7974 3.5779 -11.8372 -13.7558 3.6685 9.9431 -6.8896 1.5316 5.5033 -0.0000 0.0000 0.0000 -80.6241 -49.9699 32.2524 12.3861 -20.3812 -2.2349 -0.0000 -0.0000 5.8156 6.2305 15.8793 1.7110 -7.1250 0.0000 -0.0000 -19.8321 44.9776 0.0114 -0.0000 0.0000 0.0000 72.7335 50.9356 5.9992 -11.8179 19.5310 -2.0410 0.0000 -0.0000 -1.8647 -7.3648 -10.4745 1.3461 7.1250 -0.0000 -0.0000 17.1433 -39.9430 2.2122
0.6097 15.2969 6.7207 1.5207 -4.5610 62.2412 0.0000 0.0000 0.0000 6.4449 -24.1914 -87.8161 2.7134 10.2159 29.6789 -0.1533 7.8478 -6.8080 0.1104 2.1426 5.9000 0.0000 0.0000 0.0000 -15.7539 22.4471 -91.4243 -3.2455 -11.0823 32.5579 0.2474 -9.1754 -6.2174 -0.0017 -0.2665 0.7322 -0.3165 1.7272 33.4324 -1.1209 1.8522 3.2785 -1.7959 0.7903 -13.5256 16.8661 3.6644 -11.9981 -13.7428 3.7487 9.9621 -6.8896 1.5691 5.5509 -0.0000 0.0000 0.0000 -80.2518 -47.7035 31.6919 12.4293 -20.4454 -2.2500 -0.0000 -0.0000 5.8861 5.8087 15.8091 1.5875 -7.1250 0.0000 -0.0000 -20.1776 44.8623 0.0716 -0.0000 0.0000 0.0000 74.3777 49.0845 6.1784 -11.8121 19.5222 -2.0391 0.0000 -0.0000 -2.8744 -7.2223 -11.0612 1.3928 7.1250 -0.0000 -0.0000 17.4244 -40.4944 2.0053
0.6060 15.3039 6.7200 1.5857 -4.5805 61.4894 0.0000 0.0000 0.0000 5.8603 -24.2545 -87.0130 2.7471 10.2739 29.8684 -0.1370 7.5975 -6.8834 0.1090 2.1284 5.8607 0.0000 0.0000 0.0000 -15.3303 22.5751 -90.7221 -3.3035 -11.1709 32.8583 0.2304 -8.9562 -6.3764 -0.0016 -0.2561 0.7035 -0.2418 1.5978 33.0492 -1.2712 1.7014 3.2756 -1.9289 0.7207 -13.3694 16.9936 3.7583 -12.1572 -13.8039 3.8366 9.9590 -6.9238 1.6077 5.5954 -0.0000 -0.0000 0.0000 -79.8975 -45.4588 31.1897 12.4978 -20.5470 -2.2740 -0.0000 -0.0000 5.5665 5.5184 15.9002 1.5162 -7.1250 0.0000 -0.0000 -20.4667 44.9142 0.0453 -0.0000 -0.0000 0.0000 75.8834 47.2339 6.1830 -11.8209 19.5354 -2.0420 0.0000 -0.0000 -3.9763 -6.9836 -11.7550 1.4295 7.1250 -0.0000 -0.0000 17.8249 -41.1380 1.7608
0.6023 15.3120 6.7202 1.6426 -4.6050 60.7389 0.0000 0.0000 0.0000 5.2902 -24.3044 -86.1892 2.7762 10.3236 30.0313 -0.1224 7.3715 -6.9575 0.1082 2.1207 5.8394 0.0000 0.0000 0.0000 -14.9045 22.7076 -89.9885 -3.3526 -11.2451 33.1109 0.2144 -8.7483 -6.5205 -0.0015 -0.2503 0.6876 -0.1779 1.4773 32.6716 -1.4154 1.5582 3.2706 -2.0534 0.6547 -13.2180 17.0643 3.8546 -12.2929 -13.7992 3.9304 9.9185 -6.9243 1.6516 5.6229 -0.0000 0.0000 0.0000 -79.5785 -43.2362 30.7326 12.5810 -20.6702 -2.3033 -0.0000 -0.0000 4.9460 5.3294 16.1186 1.4835 -7.1250 0.0000 -0.0000 -20.7153 45.0965 -0.0516 -0.0000 0.0000 0.0000 77.2384 45.3776 5.9981 -11.8372 19.5600 -2.0475 0.0000 -0.0000 -4.9866 -6.6191 -12.4663 1.4349 7.1250 -0.0000 -0.0000 18.3483 -41.7832 1.5126
0.5987 15.3212 6.7211 1.6902 -4.6239 59.9950 0.0000 0.0000 0.0000 4.7244 -24.3358 -85.3543 2.8002 10.3644 30.1651 -0.1085 7.1489 -7.0153 0.1069 2.1087 5.8061 0.0000 0.0000 0.0000 -14.4577 22.8364 -89.2281 -3.3929 -11.3054 33.3168 0.1989 -8.5423 -6.6500 -0.0015 -0.2464 0.6770 -0.1159 1.3718 32.2951 -1.5419 1.4351 3.2559 -2.1671 0.5976 -13.0777 17.0486 3.9421 -12.4291 -13.7081 4.0167 9.8881 -6.8810 1.6941 5.6487 0.0000 0.0000 0.0000 -79.3212 -41.0306 30.3022 12.6710 -20.8032 -2.3351 -0.0000 -0.0000 4.1569 5.1644 16.4176 1.4633 -7.1250 0.0000 -0.0000 -20.9754 45.3568 -0.1933 0.0000 0.0000 0.0000 78.4193 43.4896 5.6413 -11.8587 19.5924 -2.0547 0.0000 -0.0000 -5.7823 -6.1615 -13.1206 1.4038 7.1250 -0.0000 -0.0000 18.9452 -42.3608 1.2841
0.5954 15.3312 6.7229 1.7354 -4.6475 59.2661 0.0000 0.0000 0.0000 4.1659 -24.3563 -84.5128 2.8187 10.3956 30.2674 -0.0959 6.9413 -7.0661 0.1057 2.0963 5.7719 0.0000 0.0000 0.0000 -14.0076 22.9561 -88.4537 -3.4249 -11.3530 33.4799 0.1838 -8.3386 -6.7661 -0.0014 -0.2381 0.6543 -0.0632 1.2826 31.9099 -1.6553 1.3307 3.2236 -2.2698 0.5489 -12.9534 16.9177 4.0176 -12.5714 -13.4886 4.0922 9.8979 -6.7758 1.7356 5.6806 0.0000 -0.0000 0.0000 -79.1273 -38.8260 29.8449 12.7623 -20.9379 -2.3677 -0.0000 -0.0000 3.3582 4.9359 16.7425 1.4251 -7.1250 0.0000 -0.0000 -21.3042 45.6323 -0.3484 0.0000 -0.0000 0.0000 79.4407 41.5627 5.1032 -11.8504 19.5799 -2.0519 0.0000 -0.0000 -6.2371 -5.6744 -13.4053 1.3196 7.1250 -0.0000 -0.0000 19.4562 -42.5817 1.2110
